<svg width="30" height="24" viewBox="0 0 30 24" fill="none" xmlns="http://www.w3.org/2000/svg">
<g clip-path="url(#clip0_845_9276)">
<path d="M9.50391 23.1211H25.1953C27.2344 23.1211 28.3242 22.0898 28.3242 20.0391V19.2891L22.8867 14.1562C22.4297 13.7344 21.8672 13.5234 21.3047 13.5234C20.7188 13.5234 20.2031 13.7109 19.7227 14.1445L14.9883 18.3398L13.1016 16.6406C12.6562 16.2305 12.1758 16.043 11.6719 16.043C11.2148 16.043 10.7812 16.2305 10.3242 16.6172L6.375 20.0508C6.375 22.0898 7.46484 23.1211 9.50391 23.1211ZM14.1445 14.4141C15.5039 14.4141 16.6172 13.2773 16.6172 11.9062C16.6172 10.5586 15.5039 9.42188 14.1445 9.42188C12.7734 9.42188 11.6602 10.5586 11.6602 11.9062C11.6602 13.2773 12.7734 14.4141 14.1445 14.4141ZM3.67969 18.3164H6.58594V16.4297H3.70312C2.53125 16.4297 1.88672 15.8086 1.88672 14.5898V3.73828C1.88672 2.51953 2.53125 1.88672 3.70312 1.88672H19.5234C20.6836 1.88672 21.3516 2.51953 21.3516 3.73828V6.1875H23.2383V3.63281C23.2383 1.21875 21.9961 0 19.5586 0H3.67969C1.21875 0 0 1.21875 0 3.63281V14.6836C0 17.1094 1.21875 18.3164 3.67969 18.3164ZM9.46875 23.7422H25.4766C27.9141 23.7422 29.1562 22.5234 29.1562 20.1094V9.05859C29.1562 6.64453 27.9141 5.42578 25.4766 5.42578H9.46875C7.00781 5.42578 5.78906 6.64453 5.78906 9.05859V20.1094C5.78906 22.5352 7.00781 23.7422 9.46875 23.7422ZM9.49219 21.8555C8.32031 21.8555 7.67578 21.2344 7.67578 20.0156V9.16406C7.67578 7.94531 8.32031 7.3125 9.49219 7.3125H25.4414C26.6016 7.3125 27.2695 7.94531 27.2695 9.16406V20.0156C27.2695 21.2344 26.6016 21.8555 25.4414 21.8555H9.49219Z" fill="white"/>
</g>
<defs>
<clipPath id="clip0_845_9276">
<rect width="29.1562" height="23.7539" fill="white"/>
</clipPath>
</defs>
</svg>
