<svg width="40" height="40" viewBox="0 0 40 40" fill="none" xmlns="http://www.w3.org/2000/svg">
<g clip-path="url(#clip0_1242_7677)">
<path d="M20 39.9804C30.9411 39.9804 40 30.9064 40 19.9902C40 9.05438 30.9216 0 19.9803 0C9.05882 0 0 9.05438 0 19.9902C0 30.9064 9.07842 39.9804 20 39.9804Z" fill="#FF305C"/>
<path d="M14.2751 26.9895C14.6574 26.9895 14.99 26.8399 15.2393 26.574L19.9442 21.8524L24.6824 26.574C24.9318 26.8232 25.2476 26.9895 25.6299 26.9895C26.3615 26.9895 26.96 26.391 26.96 25.6429C26.96 25.2606 26.8269 24.9613 26.561 24.6952L21.8395 19.9738L26.5777 15.219C26.8603 14.9364 26.9765 14.6538 26.9765 14.288C26.9765 13.5565 26.3781 12.958 25.6466 12.958C25.2975 12.958 25.0149 13.091 24.7323 13.3736L19.9442 18.1118L15.2061 13.3903C14.9567 13.1243 14.6574 12.9913 14.2751 12.9913C13.5436 12.9913 12.9451 13.5731 12.9451 14.3046C12.9451 14.6704 13.0947 14.9863 13.3441 15.2356L18.0656 19.9738L13.3441 24.7119C13.0947 24.9613 12.9451 25.2771 12.9451 25.6429C12.9451 26.391 13.5436 26.9895 14.2751 26.9895Z" fill="#F6FAFC"/>
</g>
<defs>
<clipPath id="clip0_1242_7677">
<rect width="40" height="40" fill="white"/>
</clipPath>
</defs>
</svg>
